<svg width="2800" height="507" viewBox="0 0 2800 507" fill="none" xmlns="http://www.w3.org/2000/svg">
<path d="M0 4.27847H399.535C471.947 4.27847 534.485 28.5232 587.149 77.0126C639.306 125.977 665.385 184.688 665.385 253.143C665.385 322.55 639.306 381.736 587.149 430.7C534.992 479.19 472.453 503.435 399.535 503.435H0V4.27847ZM311.424 462.076C340.288 462.076 361.05 453.281 373.709 435.692C385.862 418.578 393.458 394.333 396.496 362.958C399.028 342.516 400.294 305.911 400.294 253.143C400.294 212.26 398.775 173.278 395.737 136.198C392.698 108.151 385.103 86.7581 372.95 72.0211C360.29 54.4318 339.782 45.6371 311.424 45.6371H265.85V462.076H311.424Z"/>
<path d="M702.455 4.27847H950.076V503.435H702.455V4.27847Z"/>
<path d="M993.229 253.143C993.229 169 1015.26 106.487 1059.31 65.6034C1087.67 38.9817 1119.32 21.3924 1154.26 12.8354C1189.2 4.27848 1235.03 0 1291.74 0C1344.4 0 1386.69 3.5654 1418.59 10.6962C1451 17.3516 1477.58 31.8509 1498.34 54.1941C1515.56 72.7342 1528.98 95.3151 1538.6 121.937C1548.73 148.083 1554.55 173.754 1556.07 198.949H1512.78C1510.75 177.557 1505.18 155.689 1496.07 133.346C1487.46 110.527 1473.78 91.0366 1455.05 74.8734C1436.31 58.2349 1412.51 49.9156 1383.65 49.9156C1356.81 49.9156 1334.53 61.0872 1316.81 83.4304C1301.61 102.921 1290.73 128.83 1284.14 161.156C1278.07 189.679 1275.03 220.342 1275.03 253.143C1275.03 306.862 1282.12 351.786 1296.3 387.916C1315.03 434.028 1344.15 457.084 1383.65 457.084V259.561H1616.08V503.435C1543.16 503.435 1460.62 504.385 1368.46 506.287L1291.74 507C1236.04 507 1190.72 502.008 1155.78 492.025C1121.34 481.567 1091.72 464.691 1066.91 441.397C1017.79 395.284 993.229 332.533 993.229 253.143Z"/>
<path d="M1658.6 4.27847H2210.8V46.3502H1925.96V231.038H2065.73V273.823H1925.96V460.65H2210.8V503.435H1658.6V4.27847Z"/>
<path d="M2385.27 251.717L2253.11 4.27847H2518.96L2625.3 202.515L2740.75 4.27847H2800L2652.64 255.283L2784.81 503.435H2518.96L2413.38 304.485L2296.4 503.435H2237.92L2385.27 251.717Z"/>
</svg>
