<svg width="134" height="32" viewBox="0 0 134 32" fill="none" xmlns="http://www.w3.org/2000/svg">
<path d="M46.4183 19.4994C44.2097 19.4994 42.9912 18.1146 43.2958 16.131C43.6385 14.1099 45.314 12.7626 47.4845 12.7626C48.6269 12.7626 49.655 13.2865 50.2643 14.0725L52.3967 12.3509C51.2543 11.0784 49.6169 10.4421 47.8653 10.4421C44.2859 10.4421 41.1634 12.8 40.6303 16.131C40.0972 19.4994 42.3819 21.8199 45.9994 21.8199C47.8272 21.8199 49.655 21.0713 51.2543 19.8363L49.7312 18.1146C48.6269 19.0877 47.4845 19.4994 46.4183 19.4994ZM60.736 10.5544C60.736 10.5544 60.2791 10.4795 60.241 10.4795C59.746 10.4047 59.2128 10.4421 58.7178 10.4795C58.2609 10.517 57.8039 10.5918 57.347 10.7415C56.9662 10.8538 56.5473 11.0035 56.2046 11.2281L56.2808 10.7041H53.6914L51.9398 21.5579H54.5291L55.5573 15.2327C55.5953 14.8585 55.7477 14.5216 55.938 14.2222C56.1284 13.9228 56.395 13.6608 56.6996 13.4737C57.0043 13.2491 57.3089 13.0994 57.6516 12.9871C57.9943 12.8749 58.337 12.8 58.7178 12.7626C59.2128 12.7251 59.746 12.7626 60.241 12.8749H60.2791C60.3552 12.8749 60.736 10.5544 60.736 10.5544ZM69.7988 11.3778C69.0753 10.7789 67.971 10.4421 66.6763 10.4421C63.4396 10.4421 60.5075 12.7251 59.9363 16.0936C59.4032 19.462 61.6499 21.745 64.7724 21.745C66.1813 21.745 67.3617 21.5579 68.3518 20.8842L68.2757 21.483H70.6366L72.3501 10.7041H69.913L69.7988 11.3778ZM69.2657 16.0936C68.923 18.152 67.3617 19.5743 65.3436 19.5743C63.2873 19.5743 62.1068 18.0772 62.4496 16.0561C62.7923 14.0351 64.4297 12.6129 66.4479 12.6129C68.466 12.6503 69.5703 14.0351 69.2657 16.0936ZM84.3069 10.7041L84.8019 7.63509L81.8318 9.73099L81.6795 10.7415H78.3285L78.6712 8.68304C78.8616 7.70994 79.9278 7.74737 79.9278 7.74737H81.1844L81.5652 5.50175H80.1182H79.7755C76.2342 5.50175 76.1199 8.19649 76.1199 8.19649L75.8914 9.46901L75.7011 10.7415H75.4726L72.5786 12.9871H75.3203L73.5686 23.9532H76.2342L77.9858 12.9497H81.3367L79.9659 21.5579H82.5934L83.9642 12.9497H87.239L87.6198 10.7041H84.3069ZM91.3515 16.131C91.8846 12.8 94.969 10.4421 98.5865 10.4421C100.338 10.4421 101.976 11.1158 103.118 12.3509L100.986 14.0725C100.376 13.2865 99.3481 12.7626 98.2057 12.7626C96.0352 12.7626 94.3598 14.1474 94.0171 16.131C93.7124 18.1146 94.9309 19.4994 97.1395 19.4994C98.2057 19.4994 99.3481 19.0877 100.452 18.1146L101.976 19.8363C100.376 21.1088 98.5485 21.8199 96.7207 21.8199C93.1032 21.8199 90.8184 19.4994 91.3515 16.131ZM122.196 14.9708L121.167 21.5579H118.578L119.606 15.1579C119.873 13.6608 119.035 12.7626 117.55 12.7626C115.989 12.7626 114.427 13.6982 114.199 15.2327L113.171 21.5579H110.581L111.61 15.1579C111.838 13.6982 110.962 12.8 109.553 12.7626C108.106 12.8374 106.431 13.7357 106.202 15.2327L105.174 21.5579H102.585L104.336 10.7041H106.926L106.85 11.2281C107.725 10.7041 108.716 10.4795 109.972 10.4421H110.201C111.8 10.4421 113.095 11.0784 113.78 12.1637C114.846 11.0784 116.484 10.4421 118.121 10.4421C120.939 10.4421 122.652 12.276 122.196 14.9708ZM122.081 20.248L123.681 18.3018C124.556 18.9754 126.232 19.4994 127.641 19.4994C128.935 19.4994 130.23 19.2374 130.382 18.3766C130.497 17.7029 129.24 17.4784 127.831 17.2538C124.899 16.7673 123.414 16.1684 123.719 13.9977C124.176 11.2655 127.032 10.4795 129.392 10.4795C131.068 10.4795 132.82 11.0409 134 11.8269L132.401 13.7731C131.487 13.2117 130.306 12.8 128.974 12.8C127.412 12.8 126.498 13.2491 126.384 13.9602C126.308 14.4468 126.727 14.6339 128.555 14.9333C131.22 15.3825 133.429 15.7942 133.01 18.3018C132.667 20.5848 130.306 21.8573 127.222 21.8573C125.508 21.8199 123.3 21.2211 122.081 20.248ZM29.1304 0H3.42711C1.52316 0 0 1.49708 0 3.36842V28.6316C0 30.5029 1.52316 32 3.42711 32H29.1304C30.9963 32 32.5575 30.5029 32.5575 28.6316V3.36842C32.5575 1.49708 31.0344 0 29.1304 0ZM16.2217 19.4994C17.2879 19.4994 18.4302 19.0877 19.5345 18.1146L21.0577 19.8363C19.4584 21.1088 17.6306 21.8199 15.8028 21.8199C12.1853 21.8199 9.90054 19.462 10.4336 16.131C10.9668 12.8 14.0512 10.4421 17.6687 10.4421C19.4203 10.4421 21.0577 11.1158 22.2001 12.3509L20.0676 14.0725C19.4584 13.2865 18.4302 12.7626 17.2879 12.7626C15.1174 12.7626 13.4419 14.1474 13.0992 16.131C12.7945 18.1146 14.0131 19.4994 16.2217 19.4994Z" fill="white"/>
</svg>
